<?xml version="1.0" encoding="UTF-8" standalone="no"?>
<svg
   xmlns:dc="http://purl.org/dc/elements/1.1/"
   xmlns:cc="http://creativecommons.org/ns#"
   xmlns:rdf="http://www.w3.org/1999/02/22-rdf-syntax-ns#"
   xmlns:svg="http://www.w3.org/2000/svg"
   xmlns="http://www.w3.org/2000/svg"
   xmlns:sodipodi="http://sodipodi.sourceforge.net/DTD/sodipodi-0.dtd"
   xmlns:inkscape="http://www.inkscape.org/namespaces/inkscape"
   version="1.1"
   x="0px"
   y="0px"
   viewBox="0 0 91 60"
   enable-background="new 0 0 100 100"
   xml:space="preserve"
   id="svg14"
   sodipodi:docname="fx2.svg"
   inkscape:version="0.92.5 (2060ec1f9f, 2020-04-08)"
   width="91"
   height="60"><metadata
     id="metadata20"><rdf:RDF><cc:Work
         rdf:about=""><dc:format>image/svg+xml</dc:format><dc:type
           rdf:resource="http://purl.org/dc/dcmitype/StillImage" /><dc:title></dc:title></cc:Work></rdf:RDF></metadata><defs
     id="defs18" /><sodipodi:namedview
     pagecolor="#ffffff"
     bordercolor="#666666"
     borderopacity="1"
     objecttolerance="10"
     gridtolerance="10"
     guidetolerance="10"
     inkscape:pageopacity="0"
     inkscape:pageshadow="2"
     inkscape:window-width="1920"
     inkscape:window-height="1056"
     id="namedview16"
     showgrid="false"
     inkscape:zoom="5.3400704"
     inkscape:cx="13.485605"
     inkscape:cy="61.001892"
     inkscape:window-x="1920"
     inkscape:window-y="0"
     inkscape:window-maximized="1"
     inkscape:current-layer="svg14"
     showborder="true"
     inkscape:showpageshadow="false" /><polygon
     points="26.2,35.4 6.2,47.9 6.2,52.1 26.2,64.6 28.8,60.4 12.2,50 28.8,39.6 "
     id="polygon2"
     transform="translate(-4.4943228,-18.086391)" /><polygon
     points="71.2,39.6 87.8,50 71.2,60.4 73.8,64.6 93.8,52.1 93.8,47.9 73.8,35.4 "
     id="polygon4"
     transform="translate(-4.4943228,-18.086391)" /><polygon
     points="51.7,28.7 39,55.9 52.6,62.2 53.6,60 65.2,35 68.4,28.2 54.8,21.9 "
     id="polygon6"
     transform="translate(-4.4943228,-18.086391)" /><polygon
     points="50.5,66.8 36.9,60.4 38.4,74.9 "
     id="polygon8"
     transform="translate(-4.4943228,-18.086391)" /></svg>